<svg id="Layer_1" viewBox="0 0 24 24" xmlns="http://www.w3.org/2000/svg" data-name="Layer 1"><path d="m22.643 18.977-.228-.133c.052-.274.085-.555.085-.843s-.033-.569-.085-.843l.228-.133c.715-.419.955-1.337.537-2.053-.42-.715-1.34-.953-2.053-.537l-.242.142c-.408-.344-.872-.616-1.385-.799v-.276c0-.828-.672-1.5-1.5-1.5s-1.5.672-1.5 1.5v.276c-.513.183-.977.455-1.385.799l-.242-.142c-.714-.415-1.633-.178-2.053.537-.418.716-.178 1.634.537 2.053l.228.133c-.052.274-.085.555-.085.843s.033.569.085.843l-.228.133c-.715.419-.955 1.337-.537 2.053.279.477.781.742 1.296.742.258 0 .519-.066.757-.205l.242-.142c.408.344.872.616 1.385.799v.276c0 .828.672 1.5 1.5 1.5s1.5-.672 1.5-1.5v-.276c.513-.183.977-.455 1.385-.799l.242.142c.238.139.499.205.757.205.515 0 1.017-.266 1.296-.742.418-.716.178-1.634-.537-2.053zm-4.643.523c-.827 0-1.5-.673-1.5-1.5s.673-1.5 1.5-1.5 1.5.673 1.5 1.5-.673 1.5-1.5 1.5zm-13.492.887c-1.119-.403-1.479-.839-1.508-.887v-6.499c1.554.659 3.53.999 5.5.999 4.224 0 8.5-1.546 8.5-4.5v-5c0-2.954-4.276-4.5-8.5-4.5s-8.5 1.546-8.5 4.5v15c0 .916.454 2.616 3.492 3.709.168.061.339.089.508.089.615 0 1.191-.381 1.412-.992.28-.779-.125-1.639-.904-1.919zm3.992-17.387c3.421 0 5.287 1.076 5.486 1.482-.224.456-2.085 1.518-5.486 1.518-3.42 0-5.286-1.075-5.486-1.482.223-.456 2.084-1.518 5.486-1.518zm-5.5 5.001c1.554.659 3.53.999 5.5.999s3.95-.341 5.505-1.002l.002 1.455c-.164.44-2.042 1.547-5.507 1.547s-5.343-1.106-5.5-1.5zm8.488 9.681c.486.486.142 1.318-.546 1.318h-.896c.095 1.077.349 1.999.774 2.789.393.729.12 1.639-.609 2.031-.716.389-1.637.128-2.032-.609-.658-1.221-1.02-2.615-1.13-4.211h-.992c-.688 0-1.032-.832-.546-1.318l2.443-2.443c.302-.302.79-.302 1.092 0l2.443 2.443z"/></svg>