<svg id="Layer_1" viewBox="0 0 24 24" xmlns="http://www.w3.org/2000/svg" data-name="Layer 1"><path d="m18 0c-3.314 0-6 2.686-6 6s2.686 6 6 6 6-2.686 6-6-2.686-6-6-6zm.752 8.44-.004.004c-.744.744-2.058.746-2.823-.019l-2.182-2.268 1.387-1.441 2.216 2.301 3.614-3.703 1.398 1.43-3.607 3.696zm-9.752 3.266c1.458 0 3 1.698 3 3.304 0 .546-.449.991-1 .991h-4c-.551 0-1-.444-1-.991 0-1.606 1.542-3.304 3-3.304zm7.729 6.29c-1.937 3.392-5.528 5.119-6.982 5.703l-.789.301-.76-.364c-1.923-.961-8.197-4.557-8.197-10.455v-5.8c0-1.197.765-2.255 1.903-2.632l4.282-1.42 2.815-.934 1.606.552c-.389.941-.606 1.971-.606 3.052 0 .692.097 1.36.262 2h-3.262c0 .673.501 1.338 1.001 1.835-2.167.551-4.001 2.805-4.001 5.174 0 1.649 1.346 2.991 3 2.991h4c1.654 0 3-1.342 3-2.991 0-.898-.267-1.777-.712-2.556 1.31.957 2.917 1.533 4.661 1.544-.115 1.414-.512 2.758-1.22 3.998z"/></svg>