<svg xmlns="http://www.w3.org/2000/svg" xmlns:xlink="http://www.w3.org/1999/xlink" viewBox="0 0 40 40"><defs><style>.cls-1{fill:none;}.cls-2{clip-path:url(#clip-path);}.cls-3{fill:#75acde;}.cls-4{fill:#fff;}.cls-10,.cls-11,.cls-5,.cls-6,.cls-7,.cls-8{fill:#f7b515;stroke:#853512;}.cls-5{stroke-width:0.12px;}.cls-6,.cls-8{stroke-width:0.12px;}.cls-7{stroke-width:0.12px;}.cls-9{fill:#853512;}.cls-10{stroke-width:0.12px;}.cls-11{stroke-width:0.16px;}.cls-12{fill:#853612;}</style><clipPath id="clip-path"><circle class="cls-1" cx="20" cy="20" r="20"/></clipPath></defs><g id="Capa_2" data-name="Capa 2"><g id="Capa_1-2" data-name="Capa 1"><g class="cls-2"><rect class="cls-3" x="-21.74" y="-6.09" width="83.48" height="52.17"/><rect class="cls-4" x="-21.74" y="11.3" width="83.48" height="17.39"/><g id="rays"><path id="ray1" class="cls-5" d="M19.67,20.14l3,6.47s.05.12.13.08,0-.15,0-.15l-2.47-6.68m-.07,2.52c0,1,.57,1.53.49,2.4a3.14,3.14,0,0,0,.51,1.72c.12.34-.12.55,0,.6s.32-.23.25-.71-.44-.63-.35-1.7-.44-1.33-.31-2.31"/><path id="ray1-2" data-name="ray1" class="cls-6" d="M19.64,20l.27,7.11s0,.14.09.14.09-.14.09-.14L20.36,20m-1,2.3c-.41.89-.06,1.62-.47,2.41a3.13,3.13,0,0,0-.18,1.78c0,.36-.32.46-.25.54s.38-.08.5-.56-.16-.75.33-1.71.1-1.39.59-2.24"/><path id="ray1-3" data-name="ray1" class="cls-7" d="M19.67,19.86,17.2,26.54s-.06.12,0,.15.13-.08.13-.08l3-6.47M18.5,21.87c-.72.67-.68,1.48-1.35,2a3.11,3.11,0,0,0-.85,1.58c-.17.32-.47.3-.44.41s.38.07.68-.33.13-.75.95-1.45.63-1.25,1.41-1.85"/><path id="ray1-4" data-name="ray1" class="cls-8" d="M19.75,19.75,14.91,25s-.1.09,0,.15.15,0,.15,0l5.22-4.84m-2.35.9c-.92.34-1.19,1.11-2,1.37a3.08,3.08,0,0,0-1.39,1.14c-.27.23-.55.09-.56.2s.33.22.75,0,.41-.64,1.44-1,1.05-.91,2-1.16"/><path id="ray2" class="cls-9" d="M20.45,22.55c.05.94.58,1.36.48,2.22.23-.68-.33-1.21-.3-2.21m-.79-2.48,2,4.44-1.71-4.58"/><path id="ray2-2" data-name="ray2" class="cls-9" d="M19.44,22.53c-.32.89,0,1.48-.41,2.23.47-.54.16-1.24.58-2.16M19.82,20,20,24.89,20.17,20"/><path id="ray2-3" data-name="ray2" class="cls-9" d="M18.52,22.12c-.64.7-.55,1.38-1.24,1.91.65-.32.63-1.09,1.36-1.77m1.19-2.32-1.71,4.58,2-4.45"/><path id="ray2-4" data-name="ray2" class="cls-9" d="M17.82,21.39c-.86.41-1,1.06-1.87,1.29.71,0,1-.76,1.93-1.12m2-1.68-3.32,3.58,3.58-3.33"/></g><g id="rays-2" data-name="rays"><path id="ray1-5" data-name="ray1" class="cls-5" d="M19.86,19.67l-6.47,3s-.12.05-.08.13.15,0,.15,0l6.68-2.47m-2.52-.07c-1,0-1.53.57-2.4.49a3.14,3.14,0,0,0-1.72.51c-.34.12-.55-.12-.6,0s.23.32.71.25.63-.44,1.7-.35,1.33-.44,2.31-.31"/><path id="ray1-6" data-name="ray1" class="cls-8" d="M20,19.64l-7.11.27s-.14,0-.14.09.14.09.14.09l7.11.27m-2.3-1c-.89-.41-1.62-.06-2.41-.47a3.13,3.13,0,0,0-1.78-.18c-.36,0-.46-.32-.54-.25s.08.38.56.5.75-.16,1.71.33,1.39.1,2.24.59"/><path id="ray1-7" data-name="ray1" class="cls-7" d="M20.14,19.67,13.46,17.2s-.12-.06-.15,0,.08.13.08.13l6.47,3M18.13,18.5c-.67-.72-1.48-.68-2-1.35a3.11,3.11,0,0,0-1.58-.85c-.32-.17-.3-.47-.41-.44s-.07.38.33.68.75.13,1.45.95,1.25.63,1.85,1.41"/><path id="ray1-8" data-name="ray1" class="cls-6" d="M20.25,19.75,15,14.91s-.09-.1-.15,0,0,.15,0,.15l4.84,5.22m-.9-2.35c-.34-.92-1.11-1.19-1.37-2a3.08,3.08,0,0,0-1.14-1.39c-.23-.27-.09-.55-.2-.56s-.22.33,0,.75.64.41,1,1.44.91,1.05,1.16,2"/><path id="ray2-5" data-name="ray2" class="cls-9" d="M17.45,20.45c-.94.05-1.36.58-2.22.48.68.23,1.21-.33,2.21-.3m2.48-.79-4.44,2,4.58-1.71"/><path id="ray2-6" data-name="ray2" class="cls-9" d="M17.47,19.44c-.89-.32-1.48,0-2.23-.41.54.47,1.24.16,2.16.58m2.59.21L15.11,20l4.88.17"/><path id="ray2-7" data-name="ray2" class="cls-9" d="M17.88,18.52c-.7-.64-1.38-.55-1.91-1.24.32.65,1.09.63,1.77,1.36m2.32,1.19-4.58-1.71,4.45,2"/><path id="ray2-8" data-name="ray2" class="cls-9" d="M18.61,17.82c-.41-.86-1.06-1-1.29-1.87,0,.71.76,1,1.12,1.93m1.68,2-3.58-3.32,3.33,3.58"/></g><g id="rays-3" data-name="rays"><path id="ray1-9" data-name="ray1" class="cls-5" d="M20.33,19.86l-3-6.47s-.05-.12-.13-.08,0,.15,0,.15l2.47,6.68m.07-2.52c0-1-.57-1.53-.49-2.4a3.14,3.14,0,0,0-.51-1.72c-.12-.34.12-.55,0-.6s-.32.23-.25.71.44.63.35,1.7.44,1.33.31,2.31"/><path id="ray1-10" data-name="ray1" class="cls-6" d="M20.36,20l-.27-7.11s0-.14-.09-.14-.09.14-.09.14L19.64,20m1-2.3c.41-.89.06-1.62.47-2.41a3.13,3.13,0,0,0,.18-1.78c0-.36.32-.46.25-.54s-.38.08-.5.56.16.75-.33,1.71-.1,1.39-.59,2.24"/><path id="ray1-11" data-name="ray1" class="cls-7" d="M20.33,20.14l2.47-6.68s.06-.12,0-.15-.13.08-.13.08l-3,6.47m1.83-1.73c.72-.67.68-1.48,1.35-2a3.11,3.11,0,0,0,.85-1.58c.17-.32.47-.3.44-.41s-.38-.07-.68.33-.13.75-.95,1.45-.63,1.25-1.41,1.85"/><path id="ray1-12" data-name="ray1" class="cls-8" d="M20.25,20.25,25.09,15s.1-.09,0-.15-.15,0-.15,0l-5.22,4.84m2.35-.9c.92-.34,1.19-1.11,2-1.37a3.08,3.08,0,0,0,1.39-1.14c.27-.23.55-.09.56-.2s-.33-.22-.75,0-.41.64-1.44,1-1.05.91-2,1.16"/><path id="ray2-9" data-name="ray2" class="cls-9" d="M19.55,17.45c-.05-.94-.58-1.36-.48-2.22-.23.68.33,1.21.3,2.21m.79,2.48-2-4.44,1.71,4.58"/><path id="ray2-10" data-name="ray2" class="cls-9" d="M20.56,17.47c.32-.89,0-1.48.41-2.23-.47.54-.16,1.24-.58,2.16M20.18,20,20,15.11,19.83,20"/><path id="ray2-11" data-name="ray2" class="cls-9" d="M21.48,17.88c.64-.7.55-1.38,1.24-1.91-.65.32-.63,1.09-1.36,1.77m-1.19,2.32,1.71-4.58-2,4.45"/><path id="ray2-12" data-name="ray2" class="cls-9" d="M22.18,18.61c.86-.41,1-1.06,1.87-1.29-.71,0-1,.76-1.93,1.12m-2,1.68,3.32-3.58-3.58,3.33"/></g><g id="rays-4" data-name="rays"><path id="ray1-13" data-name="ray1" class="cls-5" d="M20.14,20.33l6.47-3s.12-.05.08-.13-.15,0-.15,0l-6.68,2.47m2.52.07c1,0,1.53-.57,2.4-.49a3.14,3.14,0,0,0,1.72-.51c.34-.12.55.12.6,0s-.23-.32-.71-.25-.63.44-1.7.35-1.33.44-2.31.31"/><path id="ray1-14" data-name="ray1" class="cls-10" d="M20,20.36l7.11-.27s.14,0,.14-.09-.14-.09-.14-.09L20,19.64m2.3,1c.89.41,1.62.06,2.41.47a3.13,3.13,0,0,0,1.78.18c.36,0,.46.32.54.25s-.08-.38-.56-.5-.75.16-1.71-.33-1.39-.1-2.24-.59"/><path id="ray1-15" data-name="ray1" class="cls-7" d="M19.86,20.33l6.68,2.47s.12.06.15,0-.08-.13-.08-.13l-6.47-3m1.73,1.83c.67.72,1.48.68,2,1.35a3.11,3.11,0,0,0,1.58.85c.32.17.3.47.41.44s.07-.38-.33-.68-.75-.13-1.45-.95-1.25-.63-1.85-1.41"/><path id="ray1-16" data-name="ray1" class="cls-6" d="M19.75,20.25,25,25.09s.09.1.15,0,0-.15,0-.15l-4.84-5.22m.9,2.35c.34.92,1.11,1.19,1.37,2a3.08,3.08,0,0,0,1.14,1.39c.23.27.09.55.2.56s.22-.33,0-.75-.64-.41-1-1.44-.91-1.05-1.16-2"/><path id="ray2-13" data-name="ray2" class="cls-9" d="M22.55,19.55c.94-.05,1.36-.58,2.22-.48-.68-.23-1.21.33-2.21.3m-2.48.79,4.44-2-4.58,1.71"/><path id="ray2-14" data-name="ray2" class="cls-9" d="M22.53,20.56c.89.32,1.48,0,2.23.41-.54-.47-1.24-.16-2.16-.58M20,20.18,24.89,20,20,19.83"/><path id="ray2-15" data-name="ray2" class="cls-9" d="M22.12,21.48c.7.64,1.38.55,1.91,1.24-.32-.65-1.09-.63-1.77-1.36m-2.32-1.19,4.58,1.71-4.45-2"/><path id="ray2-16" data-name="ray2" class="cls-9" d="M21.39,22.18c.41.86,1.06,1,1.29,1.87,0-.71-.76-1-1.12-1.93m-1.68-2,3.58,3.32-3.33-3.58"/></g><circle class="cls-11" cx="20" cy="20" r="2.9"/><path id="loweyecontour" class="cls-12" d="M21,19.38a.59.59,0,0,0-.5.26.9.9,0,0,0,1.05,0,.79.79,0,0,0-.55-.24Zm0,.05c.2,0,.38.08.4.17a.59.59,0,0,1-.8,0,.48.48,0,0,1,.4-.21Z"/><path id="uppalpebra" class="cls-9" d="M21,19.24a.59.59,0,0,0-.49.18.61.61,0,0,1-.23.11s0,.09.05.07a1.34,1.34,0,0,0,.26-.18.58.58,0,0,1,.41-.11c.4,0,.62.33.66.31s-.22-.38-.66-.38Z"/><path id="eyebrow_nose" data-name="eyebrow nose" class="cls-9" d="M21.83,19.38a1.15,1.15,0,0,0-1.52-.18.76.76,0,0,0-.16.37,1.05,1.05,0,0,0,.23.81.18.18,0,0,0-.09,0,1.53,1.53,0,0,1-.18-1,1.25,1.25,0,0,1,.07-.26,1.07,1.07,0,0,1,1.65.23Z"/><circle id="pupil" class="cls-9" cx="20.98" cy="19.6" r="0.2"/><path id="lowpalpebra" class="cls-9" d="M21.56,19.73a.89.89,0,0,1-1,.14c-.22-.14-.22-.18-.18-.18s.09,0,.27.13a1.09,1.09,0,0,0,.89-.09Z"/><path class="cls-9" d="M19.56,20.4a.2.2,0,0,0-.17.2.21.21,0,0,0,.21.2.19.19,0,0,0,.16-.09.41.41,0,0,0,.24.07h0a.43.43,0,0,0,.24-.07.18.18,0,0,0,.16.09.2.2,0,0,0,.2-.2.2.2,0,0,0-.16-.2.14.14,0,0,1,.09.13.13.13,0,0,1-.14.13.13.13,0,0,1-.13-.13.31.31,0,0,1-.28.18.29.29,0,0,1-.27-.18.14.14,0,0,1-.14.13.13.13,0,0,1-.13-.13.13.13,0,0,1,.09-.13Z"/><path class="cls-9" d="M19.77,21c-.22,0-.31.21-.51.34a3.53,3.53,0,0,0,.36-.22c.15-.09.29,0,.38,0h0c.09,0,.22-.11.38,0a2.69,2.69,0,0,0,.36.22c-.2-.13-.3-.34-.52-.34a.75.75,0,0,0-.22.07h0A.71.71,0,0,0,19.77,21Z"/><path class="cls-9" d="M19.7,21.26a1.34,1.34,0,0,0-.37.07c.4-.09.49.05.67.05h0c.18,0,.27-.14.67-.05a1.26,1.26,0,0,0-.67,0h0a2.11,2.11,0,0,0-.3,0Z"/><path class="cls-9" d="M19.35,21.33h-.09c.47.05.25.31.74.31h0c.49,0,.27-.26.74-.31-.49,0-.34.25-.74.25h0c-.38,0-.26-.26-.65-.25Z"/><path class="cls-9" d="M20.4,22.05a.4.4,0,1,0-.8,0,.41.41,0,0,1,.8,0Z"/><path id="eyebrow_nose-2" data-name="eyebrow nose" class="cls-9" d="M18.2,19.38a1.14,1.14,0,0,1,1.51-.18.78.78,0,0,1,.17.37,1.05,1.05,0,0,1-.23.81l.09,0a1.59,1.59,0,0,0,.18-1,2.5,2.5,0,0,0-.07-.26,1.07,1.07,0,0,0-1.65.23Z"/><path id="uppalpebra-2" data-name="uppalpebra" class="cls-9" d="M19,19.24a.59.59,0,0,1,.49.18.54.54,0,0,0,.22.11s0,.09,0,.07a1.29,1.29,0,0,1-.27-.18.56.56,0,0,0-.4-.11c-.4,0-.62.33-.67.31a.7.7,0,0,1,.67-.38Z"/><path id="loweyecontour-2" data-name="loweyecontour" class="cls-12" d="M19,19.38a.59.59,0,0,0-.5.26.9.9,0,0,0,1.05,0,.81.81,0,0,0-.55-.24Zm0,.05c.2,0,.38.08.4.17a.59.59,0,0,1-.8,0,.46.46,0,0,1,.4-.21Z"/><circle id="pupil-2" data-name="pupil" class="cls-9" cx="19.01" cy="19.6" r="0.2"/><path id="lowpalpebra-2" data-name="lowpalpebra" class="cls-9" d="M18.47,19.73a.88.88,0,0,0,1,.14c.22-.14.22-.18.17-.18s-.08,0-.26.13a1.09,1.09,0,0,1-.89-.09Z"/></g></g></g></svg>