<!-- Bandera de Estados Unidos -->
<svg xmlns="http://www.w3.org/2000/svg" viewBox="0 0 3 2" width="32" height="21">
  <!-- Campo azul con estrellas -->
  <rect width="1.2" height="1" fill="#002868"/>
  <!-- Estrellas simplificadas -->
  <circle cx="0.2" cy="0.2" r="0.03" fill="#FFFFFF"/>
  <circle cx="0.4" cy="0.2" r="0.03" fill="#FFFFFF"/>
  <circle cx="0.6" cy="0.2" r="0.03" fill="#FFFFFF"/>
  <circle cx="0.3" cy="0.35" r="0.03" fill="#FFFFFF"/>
  <circle cx="0.5" cy="0.35" r="0.03" fill="#FFFFFF"/>
  <circle cx="0.2" cy="0.5" r="0.03" fill="#FFFFFF"/>
  <circle cx="0.4" cy="0.5" r="0.03" fill="#FFFFFF"/>
  <circle cx="0.6" cy="0.5" r="0.03" fill="#FFFFFF"/>
  <!-- Franjas rojas y blancas -->
  <rect x="1.2" y="0" width="1.8" height="0.15" fill="#BF0A30"/>
  <rect x="1.2" y="0.15" width="1.8" height="0.15" fill="#FFFFFF"/>
  <rect x="1.2" y="0.3" width="1.8" height="0.15" fill="#BF0A30"/>
  <rect x="1.2" y="0.45" width="1.8" height="0.15" fill="#FFFFFF"/>
  <rect x="1.2" y="0.6" width="1.8" height="0.15" fill="#BF0A30"/>
  <rect x="1.2" y="0.75" width="1.8" height="0.15" fill="#FFFFFF"/>
  <rect x="1.2" y="0.9" width="1.8" height="0.1" fill="#BF0A30"/>
  <!-- Continuación de franjas -->
  <rect y="1" width="3" height="0.1" fill="#BF0A30"/>
  <rect y="1.1" width="3" height="0.1" fill="#FFFFFF"/>
  <rect y="1.2" width="3" height="0.1" fill="#BF0A30"/>
  <rect y="1.3" width="3" height="0.1" fill="#FFFFFF"/>
  <rect y="1.4" width="3" height="0.1" fill="#BF0A30"/>
  <rect y="1.5" width="3" height="0.1" fill="#FFFFFF"/>
  <rect y="1.6" width="3" height="0.1" fill="#BF0A30"/>
  <rect y="1.7" width="3" height="0.1" fill="#FFFFFF"/>
  <rect y="1.8" width="3" height="0.2" fill="#BF0A30"/>
</svg>

