<svg id="Layer_1" viewBox="0 0 24 24" xmlns="http://www.w3.org/2000/svg" data-name="Layer 1"><path d="m23 11c0 4.57-1.037 7.421-1.081 7.54-.051.138-.161.247-.299.297-.129.046-3.144 1.1-9.12 1.158v2.005h4c.276 0 .5.224.5.5s-.224.5-.5.5h-9c-.276 0-.5-.224-.5-.5s.224-.5.5-.5h4v-2.005c-5.976-.058-8.991-1.112-9.12-1.158-.139-.05-.248-.159-.299-.297-.044-.119-1.081-2.97-1.081-7.54s1.037-7.421 1.081-7.54c.051-.138.161-.247.299-.297.028-.01.701-.25 2.023-.509.269-.058.533.123.587.394.053.271-.124.534-.395.587-.814.16-1.368.312-1.652.397-.235.747-.944 3.3-.944 6.968s.708 6.22.944 6.967c.818.245 3.861 1.033 9.056 1.033s8.238-.788 9.056-1.033c.236-.747.944-3.299.944-6.967s-.708-6.221-.944-6.968c-.285-.086-.838-.237-1.652-.397-.271-.053-.448-.315-.395-.587.053-.271.312-.451.587-.394 1.322.259 1.996.499 2.023.509.139.05.248.159.299.297.044.119 1.081 2.97 1.081 7.54zm-15.633-2.981.656-.392c-.015-.198-.023-.406-.023-.627s.008-.429.023-.627l-.656-.392c-.854-.511-1.029-1.202-.519-2.057.51-.854 1.202-1.029 2.057-.521l.426.255c.325-.226.712-.391 1.168-.498v-.661c0-.995.505-1.5 1.5-1.5s1.5.505 1.5 1.5v.661c.457.107.843.272 1.168.498l.426-.255c.854-.508 1.547-.335 2.057.521.51.854.336 1.546-.519 2.057l-.656.392c.015.198.023.406.023.627s-.008.429-.023.627l.656.392c.854.511 1.029 1.202.519 2.057-.511.854-1.203 1.028-2.057.521l-.426-.255c-.325.226-.712.391-1.168.498v.661c0 .995-.505 1.5-1.5 1.5s-1.5-.505-1.5-1.5v-.661c-.457-.107-.843-.272-1.168-.498l-.426.255c-.854.51-1.546.336-2.057-.521-.51-.854-.336-1.546.519-2.057zm.34 1.544c.226.378.31.398.686.173l.724-.433c.19-.113.434-.088.597.063.311.29.755.475 1.359.564.245.036.427.246.427.494v1.074c0 .439.061.5.5.5s.5-.061.5-.5v-1.074c0-.248.182-.458.427-.494.604-.09 1.048-.274 1.359-.564.164-.149.406-.175.597-.063l.724.433c.375.226.459.205.686-.173.225-.378.204-.461-.173-.686l-.929-.555c-.17-.102-.264-.295-.24-.491.032-.256.049-.531.049-.832s-.017-.576-.049-.832c-.024-.196.069-.39.24-.491l.929-.555c.377-.225.398-.308.173-.686-.227-.378-.311-.399-.686-.173l-.724.433c-.191.113-.434.088-.597-.063-.311-.29-.755-.475-1.359-.564-.245-.036-.427-.246-.427-.494v-1.074c0-.439-.061-.5-.5-.5s-.5.061-.5.5v1.074c0 .248-.182.458-.427.494-.604.09-1.048.274-1.359.564-.163.151-.406.177-.597.063l-.724-.433c-.375-.227-.459-.205-.686.173-.225.378-.204.461.173.686l.929.555c.17.102.264.295.24.491-.032.256-.049.531-.049.832s.017.576.049.832c.024.196-.069.39-.24.491l-.929.555c-.377.225-.398.308-.173.686zm2.293-2.563c0-1.346.654-2 2-2s2 .654 2 2-.654 2-2 2-2-.654-2-2zm1 0c0 .794.206 1 1 1s1-.206 1-1-.206-1-1-1-1 .206-1 1z"/></svg>