<?xml version="1.0" encoding="UTF-8"?>
<svg width="64" height="64" viewBox="0 0 64 64" xmlns="http://www.w3.org/2000/svg" xmlns:xlink="http://www.w3.org/1999/xlink"><g class="drawing-elements"><defs>
    <linearGradient id="g" x1="0" y1="0" x2="1" y2="1">
      <stop offset="0%" stop-color="#0a84ff"/>
      <stop offset="100%" stop-color="#0051d5"/>
    </linearGradient>
    <filter id="s" x="-20%" y="-20%" width="140%" height="140%">
      <feDropShadow dx="0" dy="2" stdDeviation="2" flood-color="rgba(0,0,0,0.25)"/>
    </filter>
  </defs><rect x="2.6666665077209473" y="4.333334922790527" width="58.33333206176758" height="55.666664123535156" rx="14" fill="url(#g)" filter="url(#s)" class=""/><g fill="#fff">
    <path d="M41.8 22.6c-2.5-2.2-5.6-3.3-9.2-3.3-4.7 0-8.6 1.6-11.7 4.9-3.1 3.3-4.6 7.3-4.6 12.2 0 4.9 1.5 8.9 4.6 12.1 3.1 3.2 7 4.8 11.7 4.8 3.6 0 6.7-1.1 9.2-3.3 2.5-2.2 4.1-5 4.7-8.5h-7.2c-.9 3.6-3.6 5.4-6.9 5.4-2.8 0-5.1-1-6.9-3-1.8-2-2.7-4.7-2.7-7.9 0-3.3.9-6 2.7-8 1.8-2 4.1-3 6.9-3 3.3 0 6 1.8 6.9 5.4h7.2c-.6-3.5-2.2-6.3-4.7-8.5z" class="" transform="translate(0.63333 -4.7)" stroke="#5e5a5a" data-stroke-color="#5e5a5a"/>
  </g></g></svg>