<?xml version="1.0" encoding="UTF-8"?>
<svg xmlns="http://www.w3.org/2000/svg" id="Layer_1" data-name="Layer 1" viewBox="0 0 24 24">
  <path d="M2.5,9.17h15.552c-.32,.209-.686,.417-1.104,.618-.747,.358-1.061,1.255-.702,2.002,.258,.537,.794,.85,1.353,.85,.218,0,.439-.048,.649-.148,3.483-1.675,4.528-3.983,4.636-4.241,.152-.363,.155-.772,.008-1.138-.104-.258-1.112-2.564-4.644-4.264-.744-.356-1.642-.046-2.002,.701-.359,.746-.045,1.643,.701,2.002,.418,.201,.785,.41,1.106,.619H2.5c-.828,0-1.5,.671-1.5,1.499s.671,1.5,1.5,1.5Z"/>
  <path d="M21.5,14.83H5.948c.32-.209,.686-.417,1.104-.618,.747-.358,1.061-1.255,.702-2.002-.358-.747-1.255-1.06-2.001-.701-3.483,1.675-4.528,3.983-4.636,4.241-.152,.363-.155,.772-.008,1.138,.104,.258,1.112,2.564,4.644,4.264,.209,.101,.431,.148,.649,.148,.558,0,1.094-.312,1.353-.85,.359-.746,.045-1.643-.701-2.002-.418-.201-.785-.41-1.106-.619h15.554c.828,0,1.5-.671,1.5-1.499s-.671-1.5-1.5-1.5Z"/>
</svg>
